<svg xmlns="http://www.w3.org/2000/svg" width="183" height="48" viewBox="0 0 183 48" fill="none">
    <path fill-rule="evenodd" clip-rule="evenodd" d="M142.982 13.5571C143.969 11.2176 145.712 9.94347 148.729 9.94347L148.732 9.94525C156.536 9.94525 155.927 19.4018 150.273 19.2606C148.066 19.2112 147.635 17.842 147.235 16.5683C146.882 15.4429 146.551 14.392 145.039 14.392C143.658 14.392 143.16 15.9827 142.984 17.6306V33.1353C142.984 33.7376 143.164 34.3256 143.499 34.8242L144.111 35.734C144.541 36.3738 144.083 37.2371 143.312 37.2371H130.368C130.213 37.2371 130.052 37.2383 129.885 37.2395C127.324 37.2588 123.413 37.2882 122.097 33.1138C120.648 36.3434 117.191 37.8876 114.013 37.8876C108.92 37.8876 106.022 35.2192 105.882 31.4749C105.682 24.498 112.374 22.6873 117.229 21.3736C119.183 20.845 120.839 20.3969 121.629 19.7253V19.0229C121.629 14.1543 121.49 12.0631 118.827 12.0631C116.23 12.0631 116.006 13.2128 115.774 15.1459C115.513 17.3185 115.243 19.5731 111.583 19.3499C106.584 19.0693 106.21 9.98815 118.827 9.98815C126.537 9.98815 130.416 13.0784 130.416 19.9129C130.416 19.9249 130.416 19.9433 130.416 19.9677C130.417 20.0163 130.418 20.0889 130.418 20.1828L130.423 34.5007C130.423 35.1853 130.84 35.7393 131.523 35.7393H133.014C133.697 35.7393 134.101 35.1853 134.101 34.5007V15.3232C134.047 14.8031 133.78 14.3259 133.355 14.0113L132.916 13.686C132.183 13.1409 132.399 11.9881 133.28 11.7486L140.954 9.6575C141.976 9.37868 142.982 10.1508 142.982 11.2107V13.5571ZM118.588 31.7644C120.286 31.7644 121.629 30.4579 121.629 28.558V22.9781C121.376 23.1434 121.047 23.3279 120.675 23.5366C118.729 24.628 115.609 26.3787 115.94 29.4695C116.099 31.012 117.283 31.7644 118.588 31.7644Z" fill="#96ABA6"/>
    <path fill-rule="evenodd" clip-rule="evenodd" d="M73.3671 35.8001L72.7552 34.8904C72.4198 34.3917 72.2396 33.8037 72.2396 33.2014V21.1033C72.2396 13.8004 69.3887 10.0078 62.7537 10.0078C57.6603 10.0078 55.1376 12.7692 53.8745 15.3446C52.5668 11.8344 49.8086 10.0078 45.1826 10.0078C40.5565 10.0078 38.4049 12.3652 37.1436 14.846V13.207V11.2535C37.1436 10.1937 36.1374 9.42158 35.1151 9.7004L27.4419 11.7915C26.5605 12.031 26.3447 13.1838 27.0779 13.7289L27.5168 14.0542C27.8825 14.3259 28.1323 14.7191 28.2286 15.1552H28.2215L28.2233 34.499C28.2233 35.1835 27.8052 35.7375 27.1219 35.7375H25.6453C24.962 35.7375 24.5423 35.1835 24.5423 34.499L24.5405 19.9111C24.5405 13.0766 20.662 9.98636 12.9513 9.98636C0.332634 9.98815 0.705504 19.0711 5.70622 19.3517C9.36542 19.5749 9.63605 17.3203 9.89682 15.1477C10.1289 13.2146 10.3549 12.0704 12.9513 12.0704C15.6149 12.0704 15.7523 14.1561 15.7523 19.0247V19.7271C14.9618 20.398 13.3067 20.8458 11.3543 21.3739C6.4986 22.6876 -0.195406 24.4987 0.00436889 31.4767C0.14531 35.221 3.04262 37.8894 8.13611 37.8894C11.3135 37.8894 14.771 36.3452 16.2197 33.1156C17.5514 37.3387 21.5382 37.319 24.0967 37.3063C24.2319 37.3056 24.364 37.305 24.4906 37.305H37.4719C38.2426 37.305 38.7011 36.4149 38.2711 35.7733L37.6592 34.8636C37.3345 34.381 37.1579 33.8126 37.1454 33.2318V20.8709C37.1454 17.5948 38.3603 14.2705 41.6787 14.2705C44.997 14.2705 45.7445 17.4536 45.7445 21.1051V33.2246C45.7356 33.8091 45.5572 34.3792 45.2307 34.8654L44.6188 35.7751C44.187 36.4149 44.6455 37.3068 45.418 37.3068H55.0395C55.8102 37.3068 56.2687 36.4435 55.8387 35.8037L55.2268 34.8939C54.9217 34.44 54.7469 33.9127 54.7184 33.3676V20.8709C54.7184 17.5948 55.9333 14.2705 59.2035 14.2705C62.4737 14.2705 63.3157 17.4536 63.3157 21.1051V33.4051C63.2765 33.9252 63.1016 34.4293 62.8091 34.8636L62.1971 35.7733C61.7654 36.4131 62.2239 37.305 62.9964 37.305H72.5697C73.3404 37.305 73.7989 36.4417 73.3689 35.8019L73.3671 35.8001ZM15.7523 28.558C15.7523 30.4579 14.4089 31.7644 12.7104 31.7644C11.4063 31.7644 10.2217 31.012 10.0629 29.4695C9.7319 26.3787 12.8523 24.628 14.7977 23.5366C15.1696 23.3279 15.4986 23.1433 15.7523 22.9781V28.558Z" fill="#96ABA6"/>
    <path fill-rule="evenodd" clip-rule="evenodd" d="M85.1761 14.3867C86.7193 12.0024 89.283 10.3778 92.9635 10.3778H92.9653C100.432 10.3778 104.58 16.61 104.257 25.6126C103.934 34.431 97.8965 38.8635 90.4766 37.7089C88.0806 37.339 86.243 36.1844 85.1833 34.6151L85.1779 43.8983C85.1779 44.5006 85.3581 45.0886 85.6935 45.5873L86.3054 46.497C86.7354 47.1368 86.2769 48.0001 85.5062 48.0001H76.0007C75.2282 48.0001 74.7697 47.1368 75.2015 46.497L75.8134 45.5873C76.0649 45.2137 76.2291 44.7883 76.2951 44.3451V15.3679C76.2416 14.8478 75.974 14.3706 75.5494 14.056L75.1105 13.7307C74.3772 13.1856 74.5931 12.0328 75.4744 11.7933L83.1476 9.70218C84.1699 9.42337 85.1761 10.1955 85.1761 11.2553V14.3867ZM85.2671 25.9825C85.499 32.3077 87.8023 34.2872 90.8441 34.1031C93.9323 33.8707 95.3613 29.9539 95.2222 23.7216C95.083 17.3035 92.687 14.7602 89.738 14.9907C86.6497 15.1748 84.9906 17.9952 85.2671 25.9825Z" fill="#96ABA6"/>
    <path fill-rule="evenodd" clip-rule="evenodd" d="M168.396 9.98994C176.9 9.98994 182.227 16.2633 182.227 23.9397C182.227 31.6625 176.947 37.8894 168.396 37.8894C159.845 37.8894 154.564 31.6643 154.564 23.9397C154.61 16.2633 159.891 9.98994 168.396 9.98994ZM164.2 25.727C166.596 31.6053 169.798 35.6968 172.988 34.3974C176.019 32.9926 175.016 27.9432 172.683 22.1453C170.251 16.3205 167.038 12.1846 163.892 13.475C160.818 14.8888 161.821 19.938 164.2 25.727Z" fill="#96ABA6"/>
</svg>
