<svg width="120" height="32" viewBox="0 0 120 32" fill="none" xmlns="http://www.w3.org/2000/svg">
<g id="amparo-logo">
<g id="logo">
<path fill-rule="evenodd" clip-rule="evenodd" d="M93.8653 9.03805C94.5094 7.47834 95.6475 6.62894 97.6173 6.62894L97.6196 6.63013C102.715 6.63013 102.318 12.9345 98.6261 12.8403C97.1845 12.8074 96.9036 11.8946 96.6423 11.0455C96.4114 10.2952 96.1958 9.59464 95.2084 9.59464C94.3067 9.59464 93.9818 10.6551 93.8664 11.7537V22.0901C93.8664 22.4917 93.9841 22.8837 94.2031 23.2161L94.6026 23.8226C94.8834 24.2492 94.584 24.8247 94.0808 24.8247H85.629C85.5281 24.8247 85.4228 24.8255 85.3137 24.8263C83.6415 24.8392 81.0882 24.8588 80.2287 22.0758C79.2828 24.2289 77.0253 25.2584 74.9506 25.2584C71.625 25.2584 69.7332 23.4794 69.6412 20.9832C69.5108 16.3319 73.8801 15.1248 77.0505 14.249C78.3258 13.8967 79.4072 13.5979 79.9235 13.1501V12.6819C79.9235 9.43616 79.8326 8.04203 78.0935 8.04203C76.3982 8.04203 76.2518 8.80851 76.1003 10.0972C75.93 11.5456 75.7533 13.0487 73.3641 12.8999C70.1001 12.7129 69.8555 6.65872 78.0935 6.65872C83.128 6.65872 85.6604 8.71887 85.6604 13.2752C85.6604 13.2832 85.6606 13.2955 85.6607 13.3118C85.6611 13.3442 85.6616 13.3925 85.6616 13.4552L85.6651 23.0005C85.6651 23.4568 85.9373 23.8262 86.3834 23.8262H87.3566C87.8027 23.8262 88.0665 23.4568 88.0665 23.0005V10.2154C88.0316 9.86869 87.8569 9.55055 87.5796 9.34084L87.2931 9.12399C86.8143 8.76057 86.9553 7.99204 87.5307 7.83237L92.5408 6.43829C93.2083 6.25242 93.8653 6.76715 93.8653 7.47373V9.03805ZM77.9374 21.1762C79.0463 21.1762 79.9235 20.3052 79.9235 19.0386V15.3187C79.7578 15.4289 79.543 15.5519 79.3002 15.691C78.03 16.4186 75.9926 17.5857 76.2087 19.6463C76.3124 20.6746 77.0859 21.1762 77.9374 21.1762Z" fill="#3D2B57"/>
<path fill-rule="evenodd" clip-rule="evenodd" d="M48.4115 23.8667L48.012 23.2602C47.793 22.9278 47.6753 22.5358 47.6753 22.1342V14.0688C47.6753 9.20024 45.8138 6.67183 41.4817 6.67183C38.156 6.67183 36.5089 8.51273 35.6842 10.2297C34.8303 7.88957 33.0294 6.67183 30.0089 6.67183C26.9884 6.67183 25.5836 8.24345 24.76 9.89728V8.80466V7.50232C24.76 6.79575 24.103 6.28101 23.4356 6.46689L18.4255 7.86097C17.85 8.02063 17.7091 8.78917 18.1878 9.15258L18.4744 9.36944C18.7132 9.55055 18.8763 9.81268 18.9392 10.1034H18.9345L18.9357 22.9993C18.9357 23.4556 18.6627 23.825 18.2165 23.825H17.2524C16.8063 23.825 16.5323 23.4556 16.5323 22.9993L16.5311 13.2741C16.5311 8.71767 13.9987 6.65753 8.96411 6.65753C0.725 6.65872 0.968458 12.714 4.23358 12.9011C6.62279 13.0499 6.79949 11.5468 6.96976 10.0984C7.12126 8.80971 7.26883 8.0469 8.96411 8.0469C10.7033 8.0469 10.793 9.43736 10.793 12.6831V13.1513C10.2769 13.5986 9.19615 13.8971 7.92142 14.2493C4.75096 15.1251 0.380226 16.3324 0.510665 20.9844C0.60269 23.4806 2.49444 25.2596 5.82013 25.2596C7.89477 25.2596 10.1523 24.2301 11.0982 22.077C11.9677 24.8924 14.5708 24.8793 16.2413 24.8708C16.3296 24.8704 16.4158 24.87 16.4985 24.87H24.9744C25.4776 24.87 25.777 24.2766 25.4962 23.8488L25.0967 23.2423C24.8847 22.9206 24.7693 22.5417 24.7612 22.1545V13.9139C24.7612 11.7298 25.5545 9.51361 27.7211 9.51361C29.8878 9.51361 30.3758 11.6357 30.3758 14.07V22.1497C30.37 22.5393 30.2535 22.9194 30.0404 23.2435L29.6408 23.85C29.3589 24.2766 29.6583 24.8711 30.1627 24.8711H36.4448C36.948 24.8711 37.2474 24.2956 36.9667 23.8691L36.5671 23.2626C36.3679 22.9599 36.2538 22.6084 36.2351 22.245V13.9139C36.2351 11.7298 37.0284 9.51361 39.1636 9.51361C41.2988 9.51361 41.8486 11.6357 41.8486 14.07V22.2701C41.823 22.6168 41.7089 22.9528 41.5178 23.2423L41.1183 23.8488C40.8364 24.2754 41.1357 24.87 41.6401 24.87H47.8908C48.394 24.87 48.6934 24.2944 48.4127 23.8679L48.4115 23.8667ZM10.793 19.0386C10.793 20.3052 9.91581 21.1762 8.80686 21.1762C7.95534 21.1762 7.18187 20.6746 7.07819 19.6463C6.86208 17.5857 8.89948 16.4186 10.1697 15.691C10.4125 15.5519 10.6273 15.4289 10.793 15.3187V19.0386Z" fill="#3D2B57"/>
<path fill-rule="evenodd" clip-rule="evenodd" d="M56.122 9.59106C57.1296 8.00157 58.8035 6.91848 61.2066 6.91848H61.2078C66.0828 6.91848 68.7911 11.0733 68.5802 17.075C68.3694 22.954 64.4275 25.909 59.5828 25.1392C58.0184 24.8926 56.8186 24.1229 56.1266 23.0767L56.1231 29.2655C56.1231 29.667 56.2408 30.059 56.4598 30.3915L56.8593 30.998C57.1401 31.4245 56.8407 32 56.3375 32H50.1311C49.6267 32 49.3273 31.4245 49.6092 30.998L50.0088 30.3915C50.173 30.1424 50.2802 29.8589 50.3233 29.5634V10.2452C50.2883 9.89847 50.1136 9.58034 49.8364 9.37063L49.5498 9.15377C49.071 8.79036 49.212 8.02183 49.7874 7.86216L54.7975 6.46808C55.465 6.2822 56.122 6.79694 56.122 7.50351V9.59106ZM56.1814 17.3217C56.3328 21.5385 57.8367 22.8581 59.8227 22.7354C61.8391 22.5805 62.7722 19.9692 62.6813 15.8144C62.5905 11.5356 61.0261 9.84007 59.1005 9.99377C57.0842 10.1165 56.0008 11.9967 56.1814 17.3217Z" fill="#3D2B57"/>
<path fill-rule="evenodd" clip-rule="evenodd" d="M110.459 6.65992C116.012 6.65992 119.49 10.8422 119.49 15.9598C119.49 21.1083 116.042 25.2596 110.459 25.2596C104.875 25.2596 101.427 21.1095 101.427 15.9598C101.458 10.8422 104.906 6.65992 110.459 6.65992ZM107.719 17.1513C109.283 21.0702 111.374 23.7978 113.457 22.9316C115.436 21.995 114.781 18.6288 113.258 14.7635C111.67 10.8803 109.572 8.12304 107.518 8.98331C105.511 9.92581 106.166 13.2919 107.719 17.1513Z" fill="#3D2B57"/>
</g>
</g>
</svg>
